# xmcd
#
# Track frame offsets:
# 150
# 15250
# 38255
# 61932
# 86452
# 104997
# 139987
# 157377
# 176032
# 198502
# 220620
# 238192
#
# Disc length: 3249 seconds
#
#
# Revision: 3
# Processed by: cddbd v1.5.2PL0 Copyright (c) Steve Scherf et al.
# Submitted via: FreeRIP 2.96 
#
DISCID=a50caf0c
DTITLE=Darrell Scott - Family Tree
DYEAR=1900
DGENRE=
TTITLE0=My Father's House
TTITLE1=Rhonda's Last Ride
TTITLE2=Lazarus Dies Again
TTITLE3=Double-Headed Eagle
TTITLE4=Mahala
TTITLE5=When There's no One Around/ Will The Circle Be Unbroken
TTITLE6=She Sews The World With Love
TTITLE7=I Never Had A Sister
TTITLE8=Family Tree
TTITLE9=Any World (That I'm Welcome To)
TTITLE10=The Hummingbird
TTITLE11=My Father's House (reprise)
EXTD=
EXTT0=
EXTT1=
EXTT2=
EXTT3=
EXTT4=
EXTT5=
EXTT6=
EXTT7=
EXTT8=
EXTT9=
EXTT10=
EXTT11=
PLAYORDER=
